# xmcd
#
# Track frame offsets:
#	150
#	16746
#	33732
#	50465
#	66762
#	81407
#	100572
#	114733
#	140761
#	156587
#	177742
#	197900
#	213803
#
# Disc length: 3022
#
# Revision: 2
# Processed by: cddbd v1.5.1PL0 Copyright (c) Steve Scherf et al.
# Submitted via: EasyCDDAExtractor 5.0.6
# Normalized: r1:TDELIM( - )
#
DISCID=be0bcc0d
DTITLE=Jennifer Lopez - This Is Me...Then
DYEAR=2002
DGENRE=R&B
TTITLE0=Jennifer Lopez - Still
TTITLE1=Jennifer Lopez - Loving You
TTITLE2=Jennifer Lopez - I'm Glad
TTITLE3=Jennifer Lopez - The One
TTITLE4=Jennifer Lopez - Dear Ben
TTITLE5=Jennifer Lopez feat. LL Cool J - All I Have
TTITLE6=Jennifer Lopez feat. Styles and The Lox - Jenny Form the Block
TTITLE7=Jennifer Lopez - Again
TTITLE8=Jennifer Lopez - You Belong to Me
TTITLE9=Jennifer Lopez - I've Been Thinkin'
TTITLE10=Jennifer Lopez - Baby I Love You!
TTITLE11=Jennifer Lopez - The One (Version 2)
TTITLE12=Jennifer Lopez feat. Nas - I'm Gonna Be Alright
EXTD=
EXTT0=
EXTT1=
EXTT2=
EXTT3=
EXTT4=
EXTT5=
EXTT6=
EXTT7=
EXTT8=
EXTT9=
EXTT10=
EXTT11=
EXTT12=
PLAYORDER=
